M48
; DRILL file KiCad 10.0.5 date 2026-08-23T14:14:28
; FORMAT={-:-/ absolute / metric / decimal}
; #@! TF.CreationDate,2026-08-23T14:14:28+08:00
; #@! TF.GenerationSoftware,Kicad,Pcbnew,10.0.5
; #@! TF.FileFunction,MixedPlating,1,4
FMAT,2
METRIC
; #@! TA.AperFunction,Plated,PTH,ViaDrill
T1C0.300
; #@! TA.AperFunction,Plated,PTH,ComponentDrill
T2C1.000
; #@! TA.AperFunction,Plated,PTH,ComponentDrill
T3C1.016
; #@! TA.AperFunction,Plated,PTH,ComponentDrill
T4C1.020
; #@! TA.AperFunction,Plated,PTH,ComponentDrill
T5C2.500
; #@! TA.AperFunction,NonPlated,NPTH,ComponentDrill
T6C2.200
%
G90
G05
T1
X137.53Y-120.58
X143.21Y-101.91
X148.93Y-94.11
X164.148Y-104.5
X164.28Y-102.02
T2
X140.3Y-120.04
X140.3Y-122.58
X146.76Y-84.5
X146.76Y-87.04
X146.76Y-89.58
X146.76Y-92.12
X146.76Y-94.66
X146.76Y-97.2
X146.76Y-99.74
X146.76Y-102.28
X146.76Y-104.82
X146.76Y-107.36
X146.76Y-109.9
X146.76Y-112.44
X146.76Y-114.98
X146.76Y-117.52
X146.76Y-120.06
X162.0Y-84.5
X162.0Y-87.04
X162.0Y-89.58
X162.0Y-92.12
X162.0Y-94.66
X162.0Y-97.2
X162.0Y-99.74
X162.0Y-102.28
X162.0Y-104.82
X162.0Y-107.36
X162.0Y-109.9
X162.0Y-112.44
X162.0Y-114.98
X162.0Y-117.52
X162.0Y-120.06
X167.355Y-94.515
X169.895Y-94.515
X171.8Y-104.99
X171.8Y-107.53
X171.8Y-110.07
X171.8Y-112.61
X171.8Y-115.15
X171.8Y-117.69
X172.435Y-94.515
X174.975Y-94.515
X177.515Y-94.515
X180.055Y-94.515
X182.595Y-94.515
X184.5Y-104.99
X184.5Y-107.53
X184.5Y-110.07
X184.5Y-112.61
X184.5Y-115.15
X184.5Y-117.69
X185.135Y-94.515
T3
X142.0Y-84.365
X142.0Y-86.905
X142.0Y-89.445
X142.0Y-91.985
X142.0Y-94.525
X142.0Y-97.065
X142.0Y-99.605
X142.0Y-102.145
T4
X128.46Y-122.78
X131.0Y-122.78
X133.54Y-122.78
T5
X171.8Y-101.18
X171.8Y-121.5
X184.5Y-101.18
X184.5Y-121.5
T6
X114.315Y-83.095
X114.315Y-103.415
X134.635Y-83.095
X134.635Y-103.415
X167.99Y-83.085
X184.5Y-83.085
M30
